<svg width="15" height="15" viewBox="0 0 15 15" fill="none" xmlns="http://www.w3.org/2000/svg">
<path d="M7.85286 1.4544C9.70759 1.4544 9.91956 1.4544 10.6614 1.50755C11.3503 1.56069 11.7213 1.66698 11.9333 1.72012C12.2512 1.82641 12.4632 1.98584 12.7281 2.25156C12.9931 2.51728 13.0991 2.72985 13.2581 3.04871C13.364 3.31443 13.47 3.63329 13.47 4.32416C13.523 5.06817 13.523 5.28075 13.523 7.14077C13.523 9.0008 13.523 9.21338 13.47 9.95739C13.417 10.6483 13.3111 11.0203 13.2581 11.2328C13.1521 11.5517 12.9931 11.7643 12.7281 12.03C12.4632 12.2957 12.2512 12.402 11.9333 12.5614C11.6683 12.6677 11.3503 12.774 10.6614 12.774C9.86656 12.774 9.65459 12.774 7.85286 12.774C5.99814 12.774 5.78617 12.774 5.04428 12.7209C4.35538 12.6677 3.98443 12.5614 3.77247 12.5083C3.45451 12.402 3.24254 12.2426 2.97758 11.9768C2.71262 11.7111 2.60664 11.4986 2.44766 11.1797C2.34168 10.914 2.23569 10.5951 2.23569 9.90425C2.1827 9.16023 2.1827 8.94766 2.1827 7.08763C2.1827 5.2276 2.1827 5.01503 2.23569 4.27102C2.28868 3.58015 2.39467 3.20814 2.44766 2.99557C2.55365 2.67671 2.71262 2.46413 2.97758 2.19841C3.24254 1.9327 3.45451 1.82641 3.77247 1.66698C4.03743 1.56069 4.35538 1.4544 5.04428 1.4544C5.78617 1.4544 5.99814 1.4544 7.85286 1.4544ZM7.85286 0.178955C5.99814 0.178955 5.73318 0.178955 4.99129 0.232099C4.2494 0.285242 3.77247 0.39153 3.29554 0.550961C2.81861 0.710392 2.44766 0.97611 2.07672 1.34812C1.70577 1.72012 1.44081 2.09213 1.28183 2.57042C1.12286 2.99557 1.01687 3.52701 0.96388 4.27102C0.910888 5.01503 0.910889 5.2276 0.910889 7.14077C0.910889 9.0008 0.910888 9.26652 0.96388 10.0105C1.01687 10.7545 1.12286 11.2328 1.28183 11.7111C1.44081 12.1894 1.70577 12.5614 2.07672 12.9334C2.44766 13.3054 2.81861 13.5712 3.29554 13.7306C3.71947 13.89 4.2494 13.9963 4.99129 14.0495C5.73318 14.1026 5.94514 14.1026 7.85286 14.1026C9.70759 14.1026 9.97255 14.1026 10.7144 14.0495C11.4563 13.9963 11.9333 13.89 12.4102 13.7306C12.8871 13.5712 13.2581 13.3054 13.629 12.9334C14 12.5614 14.2649 12.1894 14.4239 11.7111C14.5829 11.286 14.6888 10.7545 14.7418 10.0105C14.7948 9.26652 14.7948 9.05395 14.7948 7.14077C14.7948 5.28075 14.7948 5.01503 14.7418 4.27102C14.6888 3.52701 14.5829 3.04871 14.4239 2.57042C14.1589 2.14527 13.947 1.72012 13.576 1.34812C13.2051 0.97611 12.8341 0.710392 12.3572 0.550961C11.9333 0.39153 11.4033 0.285242 10.6614 0.232099C9.91956 0.178955 9.70759 0.178955 7.85286 0.178955Z" fill="white"/>
<path d="M7.85296 3.57983C5.89225 3.57983 4.30249 5.17414 4.30249 7.14046C4.30249 9.10678 5.89225 10.7011 7.85296 10.7011C9.81367 10.7011 11.4034 9.10678 11.4034 7.14046C11.4034 5.17414 9.76068 3.57983 7.85296 3.57983ZM7.85296 9.42564C6.58115 9.42564 5.5743 8.41591 5.5743 7.14046C5.5743 5.86501 6.58115 4.85528 7.85296 4.85528C9.12477 4.85528 10.1316 5.86501 10.1316 7.14046C10.1316 8.36276 9.07178 9.42564 7.85296 9.42564Z" fill="white"/>
<path d="M12.3571 3.42061C12.3571 3.8989 11.9862 4.27091 11.5093 4.27091C11.0323 4.27091 10.6614 3.8989 10.6614 3.42061C10.6614 2.94232 11.0323 2.57031 11.5093 2.57031C11.9862 2.57031 12.3571 2.94232 12.3571 3.42061Z" fill="white"/>
</svg>
