<svg width="50" height="39" viewBox="0 0 50 39" fill="none" xmlns="http://www.w3.org/2000/svg">
<path d="M42.1197 1.7291C37.511 0.613636 31.3967 0 24.9029 0C18.4092 0 12.2948 0.613636 7.68607 1.7291C2.58596 2.96314 0 4.62089 0 6.65639C0.000506571 6.76197 0.00813311 6.8674 0.0228276 6.97195C0.00787624 7.03447 0.000215822 7.09851 0 7.1628V31.6179C0 33.6534 2.58596 35.3112 7.68607 36.5452C12.2948 37.6606 18.4092 38.2743 24.9029 38.2743C31.3967 38.2743 37.511 37.6606 42.1197 36.5452C47.2199 35.3112 49.8058 33.6534 49.8058 31.6179V7.1628C49.8056 7.09851 49.7979 7.03447 49.783 6.97195C49.7977 6.8674 49.8053 6.76197 49.8058 6.65639C49.8058 4.62089 47.2199 2.96314 42.1197 1.7291ZM3.13362 5.1119C4.26213 4.46634 5.9712 3.85603 8.07591 3.34681C12.5605 2.26172 18.5366 1.6641 24.9029 1.6641C31.2692 1.6641 37.2453 2.26172 41.7302 3.34681C43.8349 3.85644 45.544 4.46634 46.6725 5.1119C47.6087 5.64753 48.1456 6.21042 48.1456 6.65639C48.1456 7.10237 47.6087 7.66525 46.6722 8.20089C45.891 8.64811 44.8312 9.07766 43.555 9.46893C42.7902 8.67963 40.9981 8.09677 37.9463 7.61013C34.4551 7.05338 29.8229 6.74688 24.9026 6.74688C19.9823 6.74688 15.35 7.05349 11.8589 7.61013C8.80712 8.09677 7.01494 8.67963 6.25021 9.46893C4.97394 9.07766 3.91422 8.64728 3.13299 8.20089C2.19716 7.66525 1.66019 7.10237 1.66019 6.65639C1.66019 6.21042 2.19716 5.64753 3.13362 5.1119ZM41.7302 31.5993C41.3873 31.6825 41.035 31.762 40.6747 31.8392V22.7231C41.1709 22.6206 41.6525 22.5131 42.1197 22.4006C42.7885 22.2388 43.4136 22.0697 43.9951 21.8932V30.9626C43.307 31.1876 42.549 31.4012 41.7302 31.5993ZM14.1116 12.7034V21.8445C12.9551 21.7022 11.8448 21.5366 10.7913 21.3483V12.2207C11.8487 12.4037 12.9585 12.5649 14.1116 12.7034ZM15.7718 12.8843C16.8495 12.99 17.9585 13.0768 19.0922 13.1443V22.2945C17.9569 22.2262 16.8475 22.1378 15.7718 22.0301V12.8843ZM20.7524 13.2275C21.8419 13.2726 22.9512 13.2998 24.0728 13.3089V22.4615C22.9502 22.4523 21.8413 22.4248 20.7524 22.3789V13.2275ZM25.733 13.3089C26.8546 13.2998 27.9639 13.2726 29.0534 13.2275V22.3788C27.9645 22.4247 26.8556 22.4522 25.733 22.4614V13.3089ZM30.7136 13.1438C31.8473 13.0767 32.9563 12.9898 34.034 12.8838V22.0291C32.9583 22.1369 31.849 22.2253 30.7136 22.2936V13.1438ZM35.6942 12.7033C36.8473 12.5648 37.9571 12.4036 39.0146 12.2205V21.3483C37.9611 21.5366 36.8507 21.7019 35.6942 21.8445V12.7033ZM24.9029 11.6487C18.7537 11.6487 12.9689 11.091 8.53962 10.0752C9.31898 9.80019 10.6274 9.46237 12.8062 9.14952C16.1247 8.67318 20.4208 8.41108 24.9026 8.41108C29.3844 8.41108 33.6809 8.67349 36.999 9.14952C39.178 9.46227 40.4862 9.80008 41.2656 10.0752C36.8369 11.091 31.0522 11.6487 24.9029 11.6487ZM7.68607 11.5837C8.15252 11.6964 8.63418 11.8039 9.13107 11.9064V21.0226C8.77122 20.9454 8.41853 20.8656 8.0756 20.7826C7.25681 20.585 6.49841 20.371 5.81068 20.1461V11.0767C6.39292 11.2527 7.01805 11.4217 7.68607 11.5837ZM7.68607 22.4003C8.15252 22.513 8.63418 22.6206 9.13107 22.7231V31.8392C8.77122 31.762 8.41853 31.6823 8.0756 31.5993C7.25681 31.4016 6.49841 31.1876 5.81068 30.9627V21.8933C6.39292 22.0693 7.01805 22.2384 7.68607 22.4003ZM10.7913 23.0374C11.8487 23.2204 12.9585 23.3816 14.1116 23.5202V32.6613C12.9551 32.519 11.8448 32.3533 10.7913 32.165V23.0374ZM15.7718 23.7009C16.8495 23.8067 17.9585 23.8935 19.0922 23.9609V33.1112C17.9569 33.0429 16.8475 32.9545 15.7718 32.8467V23.7009ZM20.7524 24.0441C21.8419 24.0893 22.9512 24.1164 24.0728 24.1256V33.2781C22.9502 33.269 21.8413 33.2414 20.7524 33.1955V24.0441ZM25.733 24.1256C26.8546 24.1164 27.9639 24.0893 29.0534 24.0441V33.1954C27.9645 33.2413 26.8556 33.2689 25.733 33.278V24.1256ZM30.7136 23.9604C31.8473 23.8933 32.9563 23.8065 34.034 23.7004V32.8459C32.9583 32.9536 31.849 33.042 30.7136 33.1104V23.9604ZM35.6942 23.52C36.8473 23.3814 37.9571 23.2202 39.0146 23.0372V32.1649C37.9611 32.3532 36.8507 32.5186 35.6942 32.6612V23.52ZM41.7302 20.7825C41.3873 20.8657 41.035 20.9453 40.6747 21.0225V11.9063C41.1709 11.8038 41.6525 11.6964 42.1197 11.5839C42.7885 11.4221 43.4136 11.2529 43.9951 11.0764V20.146C43.307 20.371 42.549 20.5846 41.7302 20.7826V20.7825ZM1.66019 9.23835C2.30393 9.69119 3.13403 10.1146 4.15048 10.5086V19.522C3.80287 19.3719 3.46344 19.2036 3.13362 19.0175C2.19716 18.4819 1.66019 17.919 1.66019 17.473V9.23835ZM1.66019 20.055C2.30393 20.5078 3.13403 20.9312 4.15048 21.3252V30.3386C3.80287 30.1886 3.46344 30.0202 3.13362 29.8342C2.19716 29.2985 1.66019 28.7357 1.66019 28.2897V20.055ZM46.6722 33.1624C45.5437 33.8078 43.8346 34.4182 41.7299 34.9275C37.2453 36.0125 31.2692 36.6102 24.9029 36.6102C18.5366 36.6102 12.5605 36.0125 8.0756 34.9275C5.97089 34.4178 4.26182 33.8078 3.1333 33.1624C2.19716 32.6267 1.66019 32.0638 1.66019 31.6179V30.8716C2.93799 31.7706 4.94662 32.5524 7.68607 33.217C12.2948 34.3324 18.4092 34.9461 24.9029 34.9461C31.3967 34.9461 37.511 34.3324 42.1197 33.217C44.8562 32.5549 46.8648 31.7731 48.1456 30.8716V31.6179C48.1456 32.0638 47.6087 32.6267 46.6722 33.1624ZM46.6722 29.8342C46.3424 30.0202 46.0029 30.1886 45.6553 30.3386V21.3252C46.6707 20.9314 47.5008 20.508 48.1456 20.055V28.2897C48.1456 28.7357 47.6087 29.2985 46.6722 29.8342ZM46.6722 19.0175C46.3424 19.2036 46.0029 19.3719 45.6553 19.522V10.5086C46.6707 10.1148 47.5008 9.6914 48.1456 9.23835V17.473C48.1456 17.919 47.6087 18.4819 46.6722 19.0175Z" fill="#C7A975"/>
</svg>
