<svg width="52" height="38" viewBox="0 0 52 38" fill="none" xmlns="http://www.w3.org/2000/svg">
<path d="M49.0201 16.3202V3.25099C49.0201 1.45897 47.6003 0.00244141 45.8549 0.00244141H5.83322C4.08777 0.00244141 2.66802 1.45897 2.66802 3.25099V16.3215C1.1592 16.5561 0 17.8954 0 19.5074V27.5973C0 28.162 0.446664 28.6202 0.997018 28.6202H2.06449V33.6662C2.06449 34.2308 2.51116 34.6891 3.06151 34.6891H4.86146V36.6584C4.86146 37.223 5.30812 37.6812 5.85848 37.6812C6.40883 37.6812 6.8555 37.223 6.8555 36.6584V34.6891H44.8313V36.6584C44.8313 37.223 45.2779 37.6812 45.8283 37.6812C46.3786 37.6812 46.8253 37.223 46.8253 36.6584V34.6891H48.6252C49.1756 34.6891 49.6223 34.2308 49.6223 33.6662V28.6202H50.6897C51.2401 28.6202 51.6867 28.162 51.6867 27.5973V19.5074C51.6881 17.8954 50.5289 16.5561 49.0201 16.3202ZM4.66073 3.25099C4.66073 2.58819 5.18582 2.04812 5.83322 2.04812H45.8535C46.4996 2.04812 47.026 2.58819 47.026 3.25099V16.2847H43.5258C44.2224 15.5155 44.931 14.7068 45.6648 13.8408C45.9904 13.4562 45.9904 12.8834 45.6648 12.4975C42.78 9.09619 40.3659 6.61955 37.0505 3.66012C36.6756 3.32463 36.1173 3.32463 35.7411 3.66012C32.427 6.61818 30.0116 9.09619 27.1282 12.4975C26.8012 12.8821 26.8012 13.4549 27.1282 13.8408C27.862 14.7068 28.5705 15.5155 29.2671 16.2847H22.4209C23.1175 15.5155 23.8261 14.7068 24.5599 13.8408C24.8869 13.4562 24.8869 12.8834 24.5599 12.4975C21.6752 9.09755 19.2611 6.61955 15.9456 3.66012C15.5708 3.32463 15.0124 3.32463 14.6362 3.66012C11.3221 6.61955 8.9067 9.09619 6.02332 12.4975C5.6963 12.8821 5.6963 13.4549 6.02332 13.8408C6.75712 14.7068 7.46567 15.5155 8.16226 16.2847H4.66073V3.25099ZM32.0176 16.2834C31.1003 15.3178 30.1738 14.2909 29.206 13.1685C31.5895 10.4013 33.6992 8.237 36.3951 5.79173C39.0911 8.23564 41.2021 10.4013 43.5856 13.1685C42.6179 14.2909 41.6913 15.3178 40.774 16.2834H32.0176ZM10.9127 16.2834C9.99544 15.3164 9.06888 14.2909 8.1011 13.1685C10.4846 10.4027 12.5943 8.237 15.2916 5.79173C17.9875 8.237 20.0986 10.4013 22.4821 13.1685C21.5143 14.2909 20.5878 15.3178 19.6705 16.2834H10.9127ZM47.6295 32.642H4.05853V28.6188H47.6282L47.6295 32.642ZM49.694 26.5731H1.99404V19.506C1.99404 18.8568 2.5085 18.329 3.1426 18.329H48.5468C49.1796 18.329 49.6954 18.8568 49.6954 19.506L49.694 26.5731Z" fill="#C7A975"/>
</svg>
