<svg width="21" height="11" viewBox="0 0 21 11" fill="none" xmlns="http://www.w3.org/2000/svg">
<path d="M20.7462 0.0340152C20.5912 -0.026186 20.4087 -0.00518397 20.2797 0.0867596C17.0834 2.34642 13.0041 5.24285 11.7206 6.20734C11.0003 6.74963 10.0005 6.74963 9.27847 6.20662C7.91044 5.17868 3.32948 1.93097 0.720316 0.0867257C0.59042 -0.0052179 0.407572 -0.0255018 0.253764 0.033981C0.0991348 0.0938743 0 0.222862 0 0.365019V9.54057C0 10.3455 0.784834 11 1.75001 11H19.25C20.2152 11 21 10.3455 21 9.54057V0.365019C21 0.222862 20.9009 0.0935323 20.7462 0.0340152Z" fill="white"/>
</svg>
