<svg width="44" height="39" viewBox="0 0 44 39" fill="none" xmlns="http://www.w3.org/2000/svg">
<path d="M36.4544 29.9931H43.5728V31.0287C43.5728 34.9105 40.4185 38.0684 36.5427 38.0684H7.27995C3.40409 38.0684 0.249878 34.9105 0.249878 31.0287V29.9931H7.36828H8.21419L7.50418 29.5333C3.14193 26.7081 0.249878 21.795 0.249878 16.2186V9.33817H7.12084C7.14985 9.33817 7.17434 9.33861 7.20086 9.33908C7.2214 9.33944 7.24316 9.33983 7.26917 9.34005L7.43972 9.34151L7.50329 9.18324C7.50925 9.16842 7.51499 9.15402 7.52063 9.13991C7.53363 9.10735 7.54602 9.07632 7.55889 9.04515C7.55891 9.04512 7.55892 9.04509 7.55894 9.04506L10.1884 2.68874L16.536 5.32159C16.536 5.3216 16.536 5.32162 16.536 5.32163C16.5683 5.33504 16.6004 5.34879 16.6339 5.36318C16.6468 5.36869 16.6599 5.3743 16.6733 5.38002L16.8304 5.44714L16.95 5.32505C16.9704 5.30424 16.9858 5.28811 17.0001 5.27318C17.0171 5.25532 17.0325 5.23915 17.0529 5.21869L21.9113 0.353788L26.7698 5.21861L26.9467 5.04195L26.7698 5.21861C26.7902 5.23907 26.8056 5.25523 26.8226 5.27309C26.8369 5.28802 26.8523 5.30415 26.8727 5.32497L26.9923 5.44705L27.1494 5.37994C27.1642 5.37365 27.1784 5.36753 27.1924 5.36153C27.2247 5.34764 27.2554 5.33443 27.2867 5.32148L27.2867 5.32147L33.6343 2.68866L36.2637 9.04506L36.2638 9.04534C36.2823 9.08978 36.2997 9.13409 36.3194 9.18315L36.383 9.34142L36.5535 9.33996C36.5795 9.33974 36.6013 9.33936 36.6218 9.33899C36.6484 9.33852 36.6729 9.33809 36.7019 9.33809H43.5727V16.2185C43.5727 21.7949 40.6807 26.708 36.3185 29.5333L35.6085 29.9931H36.4544ZM32.611 5.62577L32.5154 5.39454L32.2842 5.49041L28.6704 6.98931L28.3835 7.10828L28.561 7.36311C29.2313 8.32544 29.7952 9.35893 30.237 10.4422L30.3326 10.6767L30.5658 10.578C31.6299 10.1281 32.7529 9.79155 33.9198 9.58344L34.2257 9.52888L34.1069 9.24175L32.611 5.62577ZM22.0882 3.45955L21.9113 3.28242L21.7344 3.45955L18.5148 6.68344C17.1585 8.04153 16.0987 9.67532 15.4109 11.4531L15.3365 11.6452L15.511 11.7549C18.2361 13.4683 20.4056 15.9892 21.6814 18.98L21.9113 19.5191L22.1413 18.98C23.417 15.9892 25.5865 13.4683 28.3116 11.7549L28.4861 11.6452L28.4117 11.4531C27.7238 9.67532 26.6641 8.04153 25.3078 6.68344L22.0882 3.45955ZM11.5384 5.49041L11.3073 5.39454L11.2116 5.62577L9.71571 9.24175L9.59692 9.5289L9.90285 9.58344C11.0697 9.79147 12.1927 10.1281 13.2568 10.578L13.49 10.6767L13.5856 10.4422C14.0274 9.35902 14.5913 8.32544 15.2616 7.36321L15.4391 7.10838L15.1522 6.98939L11.5384 5.49041ZM2.56762 11.4092H2.31762V11.6592V16.2185C2.31762 23.8137 8.48826 29.993 16.0743 29.993H20.6274H20.8774V29.743V25.1838C20.8774 17.5886 14.7068 11.4092 7.12075 11.4092H2.56762ZM41.3178 32.3823L41.4079 32.0642H41.0773H2.7454H2.4148L2.50485 32.3823C3.09468 34.4657 5.01127 35.9972 7.27995 35.9972H36.5427C38.8114 35.9972 40.7279 34.4657 41.3178 32.3823ZM22.9452 29.743V29.993H23.1952H27.7483C35.3344 29.993 41.505 23.8137 41.505 16.2185V11.6592V11.4092H41.255H36.7019C29.1158 11.4092 22.9452 17.5886 22.9452 25.1838V29.743Z" fill="#C7A975" stroke="#C7A975" stroke-width="0.5"/>
</svg>
