<svg width="39" height="39" viewBox="0 0 39 39" fill="none" xmlns="http://www.w3.org/2000/svg">
<path d="M38.3669 7.06162L36.5234 5.23112C36.316 5.02513 36.0347 4.90941 35.7413 4.90941H34.3303C34.1773 2.42099 32.0909 0.442871 29.5471 0.442871H10.0794C7.53559 0.442871 5.44923 2.42099 5.29622 4.90941H3.88519C3.59177 4.90941 3.31045 5.02513 3.10309 5.23112L1.25956 7.06162C1.05206 7.26761 0.935547 7.54697 0.935547 7.83825V13.3298C0.935547 13.9364 1.43079 14.4282 2.04166 14.4282C2.65253 14.4282 3.14778 13.9365 3.14778 13.3298V8.29317L4.34334 7.10602H5.28627V31.6352C5.28627 32.4397 5.81189 33.1241 6.53987 33.369V36.0651C6.53987 37.0744 7.36687 37.8956 8.38339 37.8956H11.8492C12.8657 37.8956 13.6927 37.0745 13.6927 36.0651V33.4657H25.9338V36.0651C25.9338 37.0745 26.7608 37.8956 27.7773 37.8956H31.2431C32.2596 37.8956 33.0866 37.0745 33.0866 36.0651V33.3691C33.8146 33.1242 34.3402 32.4398 34.3402 31.6352V7.10602H35.2832L36.4787 8.29317V13.3298C36.4787 13.9364 36.974 14.4282 37.5848 14.4282C38.1957 14.4282 38.691 13.9365 38.691 13.3298V7.83825C38.691 7.54697 38.5744 7.26761 38.3669 7.06162ZM32.128 31.2691H27.9641L28.4059 29.8945L32.128 29.2538V31.2691ZM13.9846 31.2691L13.1242 28.5921C12.9988 28.2022 12.6655 27.9138 12.2593 27.8439L7.4985 27.0244V22.6062C12.1737 23.4179 27.4615 23.4164 32.128 22.6062V27.0244L27.3671 27.8438C26.9609 27.9137 26.6277 28.2021 26.5022 28.5921L25.6418 31.2691H13.9846V31.2691ZM7.4985 31.2691V29.2538L11.2206 29.8945L11.6625 31.2691H7.4985ZM10.0794 2.63949H29.5471C30.9702 2.63949 32.128 3.78911 32.128 5.20222V20.3729C28.2264 21.2329 11.3977 21.2324 7.4985 20.3729V5.2023C7.4985 3.78911 8.65631 2.63949 10.0794 2.63949ZM8.7521 35.699V33.4657H11.4805V35.699H8.7521ZM28.146 35.699V33.4657H30.8744V35.699H28.146Z" fill="#C09B5A" stroke="#756353" stroke-width="0.5"/>
</svg>
